<?xml version="1.0" encoding="UTF-8"?>
<svg xmlns="http://www.w3.org/2000/svg" xmlns:xlink="http://www.w3.org/1999/xlink" width="16pt" height="16pt" viewBox="0 0 16 16" version="1.1">
<g id="surface1">
<path style=" stroke:none;fill-rule:nonzero;fill:rgb(0%,0%,0%);fill-opacity:1;" d="M 13.761719 8.390625 C 13.488281 8.671875 13.390625 8.894531 13.070312 9.976562 C 13.054688 10.03125 12.960938 10.078125 12.847656 10.078125 C 12.632812 10.078125 12.511719 10.289062 12.648438 10.449219 C 12.695312 10.511719 12.808594 10.558594 12.886719 10.558594 C 13.113281 10.558594 13.070312 10.769531 12.808594 10.953125 C 12.433594 11.214844 12.367188 11.175781 12.425781 10.703125 C 12.480469 10.238281 12.398438 10.078125 12.113281 10.078125 C 11.878906 10.078125 11.40625 10.488281 11.191406 10.871094 C 11.070312 11.089844 11.039062 11.113281 11.078125 10.960938 C 11.105469 10.847656 11.144531 10.609375 11.175781 10.414062 C 11.222656 10.070312 11.222656 10.0625 10.992188 10.097656 C 10.703125 10.128906 10.585938 10.359375 10.488281 11.046875 C 10.425781 11.558594 10.222656 11.839844 9.945312 11.839844 C 9.839844 11.839844 9.832031 11.769531 9.886719 11.375 C 9.921875 11.128906 9.953125 10.777344 9.953125 10.601562 C 9.960938 10.3125 9.9375 10.28125 9.742188 10.257812 C 9.617188 10.238281 9.519531 10.191406 9.519531 10.152344 C 9.519531 10.039062 9.144531 10.0625 8.894531 10.191406 C 8.480469 10.40625 8.078125 11 8.078125 11.390625 C 8.078125 11.59375 7.824219 11.839844 7.609375 11.839844 C 7.519531 11.839844 7.511719 11.753906 7.558594 11.375 C 7.601562 11.128906 7.632812 10.734375 7.632812 10.519531 C 7.640625 10.160156 7.625 10.121094 7.457031 10.097656 C 7.199219 10.054688 6.753906 10.359375 6.535156 10.71875 L 6.359375 11.023438 L 6.359375 10.574219 C 6.359375 10.160156 6.34375 10.121094 6.175781 10.097656 C 5.929688 10.054688 5.648438 10.246094 5.351562 10.664062 L 5.105469 11 L 5.160156 10.679688 C 5.191406 10.503906 5.222656 10.304688 5.230469 10.238281 C 5.238281 10.070312 4.929688 10.039062 4.777344 10.191406 C 4.542969 10.425781 4.390625 11.632812 4.527344 12.136719 C 4.585938 12.351562 4.839844 12.449219 5 12.320312 C 5.054688 12.273438 5.136719 12.113281 5.167969 11.976562 C 5.246094 11.617188 5.558594 10.910156 5.679688 10.839844 C 5.761719 10.792969 5.777344 10.910156 5.726562 11.414062 C 5.6875 11.976562 5.695312 12.089844 5.824219 12.238281 C 6 12.457031 6.207031 12.414062 6.3125 12.144531 C 6.351562 12.039062 6.464844 11.753906 6.558594 11.503906 C 6.726562 11.0625 6.921875 10.808594 7.007812 10.902344 C 7.03125 10.921875 7.007812 11.160156 6.960938 11.433594 C 6.871094 11.921875 6.929688 12.191406 7.152344 12.335938 C 7.3125 12.449219 7.632812 12.398438 7.902344 12.238281 C 8.160156 12.078125 8.160156 12.078125 8.320312 12.238281 C 8.527344 12.449219 8.878906 12.441406 9.152344 12.230469 L 9.367188 12.0625 L 9.550781 12.230469 C 9.777344 12.441406 10 12.449219 10.265625 12.238281 L 10.472656 12.070312 L 10.558594 12.238281 C 10.617188 12.351562 10.710938 12.398438 10.824219 12.382812 C 10.953125 12.367188 11.039062 12.230469 11.199219 11.800781 C 11.320312 11.488281 11.457031 11.160156 11.503906 11.054688 C 11.65625 10.785156 11.808594 10.839844 11.808594 11.167969 C 11.808594 11.664062 12.265625 11.832031 12.777344 11.527344 L 13.03125 11.367188 L 13.078125 11.609375 C 13.199219 12.144531 13.753906 12.496094 14.28125 12.367188 C 14.625 12.28125 15.121094 11.777344 15.121094 11.511719 C 15.121094 11.199219 14.976562 11.214844 14.640625 11.558594 C 14.367188 11.839844 14.078125 11.910156 13.855469 11.777344 C 13.726562 11.6875 13.601562 11.238281 13.601562 10.863281 L 13.601562 10.558594 L 14.023438 10.558594 C 14.464844 10.558594 14.800781 10.398438 14.800781 10.191406 C 14.800781 10.113281 14.703125 10.078125 14.480469 10.078125 C 14.136719 10.078125 14.078125 10.007812 14.296875 9.832031 C 14.496094 9.65625 14.71875 9.113281 14.71875 8.761719 C 14.71875 8.046875 14.257812 7.863281 13.761719 8.390625 Z M 14.238281 8.839844 C 14.238281 9.144531 14.015625 9.664062 13.808594 9.832031 C 13.648438 9.96875 13.648438 9.910156 13.800781 9.328125 C 14.007812 8.542969 14.238281 8.289062 14.238281 8.839844 Z M 9.40625 10.695312 C 9.382812 10.777344 9.34375 10.984375 9.3125 11.160156 C 9.199219 11.816406 8.902344 12.113281 8.71875 11.761719 C 8.535156 11.414062 8.96875 10.558594 9.320312 10.558594 C 9.40625 10.558594 9.441406 10.609375 9.40625 10.695312 Z M 9.40625 10.695312 "/>
<path style=" stroke:none;fill-rule:nonzero;fill:rgb(0%,0%,0%);fill-opacity:1;" d="M 2.496094 8.246094 C 1.726562 8.390625 1.320312 8.855469 1.382812 9.511719 C 1.433594 9.976562 1.664062 10.191406 2.585938 10.640625 C 3.335938 11.007812 3.425781 11.105469 3.328125 11.472656 C 3.273438 11.710938 2.96875 11.839844 2.480469 11.839844 C 1.855469 11.839844 1.695312 11.726562 1.664062 11.289062 C 1.640625 10.976562 1.617188 10.921875 1.457031 10.894531 C 1.175781 10.855469 1.039062 11.015625 1.039062 11.398438 C 1.039062 12.078125 1.648438 12.457031 2.632812 12.382812 C 3.488281 12.320312 3.96875 11.953125 4.046875 11.3125 C 4.113281 10.792969 3.878906 10.527344 3.015625 10.128906 C 2.207031 9.753906 2.0625 9.625 2.0625 9.3125 C 2.0625 8.992188 2.328125 8.785156 2.777344 8.742188 C 3.351562 8.695312 3.550781 8.832031 3.601562 9.320312 C 3.632812 9.671875 3.664062 9.71875 3.832031 9.742188 C 4.207031 9.800781 4.375 9.214844 4.121094 8.726562 C 3.921875 8.328125 3.183594 8.113281 2.496094 8.246094 Z M 2.496094 8.246094 "/>
<path style=" stroke:none;fill-rule:nonzero;fill:rgb(0%,0%,0%);fill-opacity:1;" d="M 4.078125 13.839844 C 4.078125 13.878906 4.121094 13.921875 4.160156 13.921875 C 4.207031 13.921875 4.238281 14 4.238281 14.089844 C 4.238281 14.214844 4.199219 14.246094 4.089844 14.214844 C 3.847656 14.152344 3.601562 14.375 3.601562 14.648438 C 3.601562 15.078125 3.710938 15.191406 4.160156 15.183594 C 4.382812 15.183594 4.558594 15.152344 4.558594 15.113281 C 4.558594 15.070312 4.527344 15.039062 4.480469 15.039062 C 4.433594 15.039062 4.398438 14.777344 4.398438 14.398438 C 4.398438 13.816406 4.382812 13.761719 4.238281 13.761719 C 4.152344 13.761719 4.078125 13.792969 4.078125 13.839844 Z M 4.144531 14.390625 C 4.207031 14.433594 4.238281 14.566406 4.222656 14.726562 C 4.207031 14.960938 4.167969 15 4 15 C 3.839844 15 3.792969 14.953125 3.777344 14.777344 C 3.761719 14.648438 3.792969 14.496094 3.847656 14.433594 C 3.953125 14.304688 4 14.296875 4.144531 14.390625 Z M 4.144531 14.390625 "/>
<path style=" stroke:none;fill-rule:nonzero;fill:rgb(0%,0%,0%);fill-opacity:1;" d="M 4.839844 13.839844 C 4.816406 13.878906 4.847656 13.921875 4.910156 13.921875 C 4.984375 13.921875 5.039062 13.878906 5.039062 13.839844 C 5.039062 13.792969 5.007812 13.761719 4.96875 13.761719 C 4.921875 13.761719 4.863281 13.792969 4.839844 13.839844 Z M 4.839844 13.839844 "/>
<path style=" stroke:none;fill-rule:nonzero;fill:rgb(0%,0%,0%);fill-opacity:1;" d="M 0.878906 13.910156 C 0.878906 13.953125 0.921875 14.015625 0.960938 14.039062 C 1.007812 14.0625 1.039062 14.304688 1.039062 14.566406 C 1.039062 14.832031 1.007812 15.039062 0.960938 15.039062 C 0.921875 15.039062 0.878906 15.070312 0.878906 15.121094 C 0.878906 15.160156 0.960938 15.199219 1.0625 15.199219 C 1.238281 15.199219 1.246094 15.175781 1.222656 14.742188 L 1.199219 14.28125 L 1.351562 14.601562 C 1.441406 14.777344 1.511719 14.960938 1.511719 15.015625 C 1.527344 15.289062 1.710938 15.152344 1.910156 14.703125 L 2.152344 14.199219 L 2.152344 14.617188 C 2.160156 14.847656 2.128906 15.039062 2.078125 15.039062 C 2.039062 15.039062 2 15.070312 2 15.121094 C 2 15.160156 2.078125 15.199219 2.183594 15.199219 C 2.359375 15.199219 2.367188 15.175781 2.335938 14.632812 C 2.3125 14.214844 2.328125 14.039062 2.40625 13.992188 C 2.496094 13.945312 2.488281 13.921875 2.375 13.871094 C 2.144531 13.785156 2.046875 13.878906 1.886719 14.351562 C 1.800781 14.601562 1.703125 14.824219 1.679688 14.839844 C 1.648438 14.863281 1.535156 14.648438 1.433594 14.375 C 1.28125 14 1.191406 13.871094 1.054688 13.855469 C 0.960938 13.839844 0.878906 13.863281 0.878906 13.910156 Z M 0.878906 13.910156 "/>
<path style=" stroke:none;fill-rule:nonzero;fill:rgb(0%,0%,0%);fill-opacity:1;" d="M 6.839844 14.519531 C 6.839844 15.167969 6.847656 15.199219 7.015625 15.199219 C 7.167969 15.199219 7.183594 15.167969 7.144531 14.921875 C 7.105469 14.648438 7.113281 14.640625 7.34375 14.640625 C 7.519531 14.640625 7.632812 14.585938 7.71875 14.449219 C 7.945312 14.113281 7.671875 13.839844 7.097656 13.839844 L 6.839844 13.839844 Z M 7.585938 14.246094 C 7.601562 14.40625 7.566406 14.472656 7.425781 14.511719 C 7.136719 14.585938 7.121094 14.574219 7.121094 14.273438 C 7.121094 14.007812 7.136719 13.992188 7.34375 14.015625 C 7.511719 14.03125 7.566406 14.089844 7.585938 14.246094 Z M 7.585938 14.246094 "/>
<path style=" stroke:none;fill-rule:nonzero;fill:rgb(0%,0%,0%);fill-opacity:1;" d="M 12.894531 14.160156 C 12.839844 14.246094 12.832031 14.320312 12.871094 14.320312 C 12.921875 14.320312 12.960938 14.511719 12.976562 14.734375 C 13 15.105469 13.023438 15.160156 13.183594 15.183594 C 13.28125 15.199219 13.359375 15.175781 13.359375 15.128906 C 13.359375 15.078125 13.304688 15.039062 13.238281 15.039062 C 13.089844 15.039062 13.070312 14.351562 13.222656 14.296875 C 13.304688 14.265625 13.304688 14.246094 13.222656 14.246094 C 13.167969 14.238281 13.121094 14.183594 13.121094 14.121094 C 13.121094 13.953125 13.015625 13.96875 12.894531 14.160156 Z M 12.894531 14.160156 "/>
<path style=" stroke:none;fill-rule:nonzero;fill:rgb(0%,0%,0%);fill-opacity:1;" d="M 2.753906 14.367188 C 2.59375 14.519531 2.558594 14.617188 2.601562 14.785156 C 2.679688 15.105469 2.800781 15.207031 3.0625 15.183594 C 3.390625 15.152344 3.425781 15 3.105469 15 C 2.921875 15 2.832031 14.960938 2.816406 14.855469 C 2.792969 14.742188 2.847656 14.71875 3.121094 14.71875 C 3.425781 14.71875 3.449219 14.703125 3.398438 14.535156 C 3.34375 14.359375 3.144531 14.160156 3.023438 14.160156 C 2.984375 14.160156 2.863281 14.246094 2.753906 14.367188 Z M 3.183594 14.503906 C 3.207031 14.601562 3.160156 14.640625 3.007812 14.640625 C 2.808594 14.640625 2.726562 14.496094 2.855469 14.367188 C 2.953125 14.273438 3.160156 14.351562 3.183594 14.503906 Z M 3.183594 14.503906 "/>
<path style=" stroke:none;fill-rule:nonzero;fill:rgb(0%,0%,0%);fill-opacity:1;" d="M 5.472656 14.273438 C 5.390625 14.335938 5.34375 14.414062 5.375 14.449219 C 5.40625 14.480469 5.488281 14.457031 5.558594 14.398438 C 5.703125 14.28125 5.921875 14.351562 5.921875 14.519531 C 5.921875 14.601562 5.839844 14.640625 5.679688 14.640625 C 5.40625 14.640625 5.246094 14.847656 5.367188 15.054688 C 5.414062 15.144531 5.542969 15.183594 5.785156 15.183594 L 6.136719 15.175781 L 6.097656 14.769531 C 6.046875 14.214844 5.816406 14.023438 5.472656 14.273438 Z M 5.902344 14.855469 C 5.871094 15.039062 5.519531 15.105469 5.519531 14.9375 C 5.519531 14.863281 5.566406 14.792969 5.625 14.777344 C 5.824219 14.6875 5.929688 14.71875 5.902344 14.855469 Z M 5.902344 14.855469 "/>
<path style=" stroke:none;fill-rule:nonzero;fill:rgb(0%,0%,0%);fill-opacity:1;" d="M 8.414062 14.230469 C 8.359375 14.265625 8.214844 14.28125 8.097656 14.265625 C 7.976562 14.246094 7.929688 14.265625 7.984375 14.289062 C 8.113281 14.34375 8.113281 14.976562 7.984375 15.105469 C 7.910156 15.175781 7.945312 15.199219 8.144531 15.199219 C 8.289062 15.199219 8.398438 15.160156 8.398438 15.121094 C 8.398438 15.070312 8.367188 15.039062 8.320312 15.039062 C 8.28125 15.039062 8.238281 14.910156 8.238281 14.753906 C 8.238281 14.535156 8.28125 14.457031 8.398438 14.425781 C 8.488281 14.398438 8.558594 14.328125 8.558594 14.273438 C 8.558594 14.144531 8.550781 14.144531 8.414062 14.230469 Z M 8.414062 14.230469 "/>
<path style=" stroke:none;fill-rule:nonzero;fill:rgb(0%,0%,0%);fill-opacity:1;" d="M 8.894531 14.289062 C 8.679688 14.433594 8.65625 14.878906 8.847656 15.078125 C 8.992188 15.222656 9.367188 15.214844 9.414062 15.070312 C 9.433594 15.015625 9.367188 14.992188 9.230469 15.023438 C 9.105469 15.046875 9 15.015625 8.953125 14.953125 C 8.832031 14.761719 8.871094 14.71875 9.199219 14.71875 C 9.464844 14.71875 9.519531 14.695312 9.519531 14.566406 C 9.519531 14.433594 9.257812 14.160156 9.121094 14.160156 C 9.097656 14.160156 8.992188 14.214844 8.894531 14.289062 Z M 9.28125 14.441406 C 9.359375 14.535156 9.351562 14.566406 9.246094 14.609375 C 9.175781 14.632812 9.0625 14.632812 8.992188 14.609375 C 8.886719 14.566406 8.878906 14.535156 8.960938 14.441406 C 9.089844 14.289062 9.152344 14.289062 9.28125 14.441406 Z M 9.28125 14.441406 "/>
<path style=" stroke:none;fill-rule:nonzero;fill:rgb(0%,0%,0%);fill-opacity:1;" d="M 9.902344 14.246094 C 9.664062 14.382812 9.726562 14.625 10.046875 14.761719 C 10.199219 14.824219 10.3125 14.910156 10.28125 14.960938 C 10.207031 15.070312 9.976562 15.0625 9.847656 14.945312 C 9.769531 14.855469 9.753906 14.871094 9.777344 15 C 9.808594 15.207031 10.304688 15.222656 10.425781 15.023438 C 10.527344 14.863281 10.375 14.640625 10.152344 14.640625 C 9.96875 14.640625 9.878906 14.488281 9.992188 14.375 C 10.0625 14.304688 10.121094 14.3125 10.238281 14.382812 C 10.375 14.464844 10.398438 14.464844 10.398438 14.359375 C 10.398438 14.296875 10.367188 14.238281 10.328125 14.238281 C 10.289062 14.238281 10.207031 14.222656 10.144531 14.199219 C 10.089844 14.183594 9.976562 14.199219 9.902344 14.246094 Z M 9.902344 14.246094 "/>
<path style=" stroke:none;fill-rule:nonzero;fill:rgb(0%,0%,0%);fill-opacity:1;" d="M 10.800781 14.320312 C 10.382812 14.734375 10.871094 15.441406 11.359375 15.121094 C 11.488281 15.03125 11.425781 15.015625 11.128906 15.039062 C 10.953125 15.054688 10.808594 14.9375 10.800781 14.777344 C 10.800781 14.742188 10.945312 14.71875 11.121094 14.71875 C 11.382812 14.71875 11.441406 14.695312 11.441406 14.566406 C 11.441406 14.425781 11.167969 14.160156 11.023438 14.160156 C 10.984375 14.160156 10.886719 14.230469 10.800781 14.320312 Z M 11.199219 14.441406 C 11.28125 14.535156 11.273438 14.566406 11.167969 14.609375 C 11.097656 14.632812 10.984375 14.632812 10.910156 14.609375 C 10.808594 14.566406 10.800781 14.535156 10.878906 14.441406 C 11.007812 14.289062 11.070312 14.289062 11.199219 14.441406 Z M 11.199219 14.441406 "/>
<path style=" stroke:none;fill-rule:nonzero;fill:rgb(0%,0%,0%);fill-opacity:1;" d="M 12.097656 14.230469 C 12.039062 14.265625 11.894531 14.28125 11.777344 14.265625 C 11.65625 14.246094 11.609375 14.265625 11.664062 14.289062 C 11.777344 14.34375 11.800781 15.039062 11.679688 15.039062 C 11.640625 15.039062 11.601562 15.070312 11.601562 15.121094 C 11.601562 15.160156 11.710938 15.199219 11.839844 15.199219 C 11.976562 15.199219 12.078125 15.160156 12.078125 15.121094 C 12.078125 15.070312 12.046875 15.039062 12 15.039062 C 11.863281 15.039062 11.902344 14.425781 12.046875 14.367188 C 12.273438 14.28125 12.335938 14.40625 12.304688 14.808594 C 12.265625 15.183594 12.273438 15.199219 12.464844 15.199219 C 12.609375 15.199219 12.648438 15.167969 12.609375 15.070312 C 12.585938 15 12.558594 14.824219 12.558594 14.679688 C 12.558594 14.527344 12.503906 14.351562 12.433594 14.289062 C 12.289062 14.144531 12.238281 14.136719 12.097656 14.230469 Z M 12.097656 14.230469 "/>
<path style=" stroke:none;fill-rule:nonzero;fill:rgb(0%,0%,0%);fill-opacity:1;" d="M 13.695312 14.289062 C 13.574219 14.367188 13.519531 14.488281 13.519531 14.679688 C 13.519531 15.007812 13.710938 15.214844 13.984375 15.183594 C 14.289062 15.152344 14.28125 15 13.984375 15 C 13.800781 15 13.710938 14.960938 13.695312 14.855469 C 13.671875 14.742188 13.726562 14.71875 13.992188 14.71875 C 14.367188 14.71875 14.425781 14.585938 14.160156 14.320312 C 13.96875 14.128906 13.929688 14.128906 13.695312 14.289062 Z M 14.078125 14.441406 C 14.160156 14.535156 14.152344 14.566406 14.046875 14.609375 C 13.976562 14.632812 13.863281 14.632812 13.792969 14.609375 C 13.6875 14.566406 13.679688 14.535156 13.761719 14.441406 C 13.886719 14.289062 13.953125 14.289062 14.078125 14.441406 Z M 14.078125 14.441406 "/>
<path style=" stroke:none;fill-rule:nonzero;fill:rgb(0%,0%,0%);fill-opacity:1;" d="M 14.929688 14.230469 C 14.902344 14.265625 14.785156 14.289062 14.664062 14.273438 C 14.535156 14.257812 14.488281 14.265625 14.542969 14.289062 C 14.65625 14.34375 14.679688 15.039062 14.558594 15.039062 C 14.519531 15.039062 14.480469 15.070312 14.480469 15.121094 C 14.480469 15.160156 14.59375 15.199219 14.71875 15.199219 C 14.855469 15.199219 14.960938 15.160156 14.960938 15.121094 C 14.960938 15.070312 14.929688 15.039062 14.878906 15.039062 C 14.839844 15.039062 14.800781 14.902344 14.800781 14.726562 C 14.800781 14.488281 14.832031 14.40625 14.960938 14.375 C 15.046875 14.351562 15.121094 14.296875 15.121094 14.246094 C 15.121094 14.144531 14.984375 14.128906 14.929688 14.230469 Z M 14.929688 14.230469 "/>
<path style=" stroke:none;fill-rule:nonzero;fill:rgb(0%,0%,0%);fill-opacity:1;" d="M 4.761719 14.71875 C 4.761719 15.167969 4.769531 15.199219 4.953125 15.199219 C 5.089844 15.199219 5.128906 15.167969 5.089844 15.070312 C 5.0625 15 5.039062 14.785156 5.039062 14.59375 C 5.039062 14.3125 5.015625 14.238281 4.902344 14.238281 C 4.785156 14.238281 4.761719 14.320312 4.761719 14.71875 Z M 4.761719 14.71875 "/>
</g>
</svg>
